<svg aria-hidden="true" style="position: absolute; width: 0; height: 0; overflow: hidden;" version="1.1" xmlns="http://www.w3.org/2000/svg" xmlns:xlink="http://www.w3.org/1999/xlink">
<defs>
<symbol id="icon-tree" viewBox="0 0 32 32">
<path d="M15.156 0.037c-1.781 0.275-2.75 0.625-4.025 1.462-0.744 0.488-1.85 1.587-2.331 2.313-0.656 0.987-1.169 2.219-1.362 3.256l-0.075 0.412-0.369 0.175c-0.825 0.381-2.006 1.269-2.612 1.962-1.069 1.231-1.744 2.575-2.081 4.15-0.175 0.831-0.188 2.344-0.031 3.231 0.688 3.769 3.769 6.669 7.575 7.119 1.544 0.188 3.025-0.038 4.519-0.675l0.7-0.3v8.856h1.875v-8.856l0.706 0.3c1.488 0.637 2.969 0.863 4.512 0.675 3.806-0.45 6.887-3.35 7.575-7.119 0.156-0.887 0.144-2.4-0.031-3.231-0.337-1.575-1.012-2.919-2.081-4.15-0.606-0.694-1.788-1.581-2.613-1.963l-0.369-0.175-0.075-0.412c-0.113-0.606-0.45-1.587-0.744-2.194-0.431-0.869-0.925-1.55-1.663-2.294-1.294-1.294-2.844-2.112-4.581-2.431-0.538-0.094-2.056-0.169-2.419-0.113zM17.038 1.969c1.381 0.225 2.525 0.763 3.563 1.694 1.262 1.125 2.012 2.638 2.219 4.488l0.075 0.656 0.444 0.169c1.031 0.387 1.775 0.844 2.488 1.512 1.931 1.819 2.631 4.525 1.825 7.075-1.069 3.406-4.713 5.419-8.181 4.531-0.663-0.169-1.806-0.688-2.262-1.031l-0.269-0.2v-5.725l2.050-1.075c1.125-0.594 2.063-1.094 2.094-1.119 0.056-0.056-0.756-1.631-0.844-1.631-0.031 0-0.775 0.381-1.663 0.844l-1.606 0.844-0.019-1.844-0.012-1.844h-1.875v7.862l-1.662-0.875c-0.912-0.481-1.669-0.863-1.675-0.85-0.012 0.006-0.213 0.381-0.444 0.825-0.269 0.506-0.4 0.819-0.356 0.844 0.037 0.019 0.981 0.512 2.1 1.1l2.031 1.063 0.006 0.788v0.794l-0.2 0.15c-1.012 0.75-2.344 1.212-3.706 1.275-3.15 0.15-5.987-1.881-6.869-4.919-0.712-2.481 0.006-5.113 1.888-6.881 0.713-0.669 1.456-1.125 2.487-1.512l0.45-0.169 0.037-0.419c0.113-1.15 0.344-1.963 0.813-2.869 1.313-2.538 4.238-4.013 7.075-3.55z"></path>
</symbol>
<symbol id="icon-board" viewBox="0 0 32 32">
<path d="M9.394 9.394l-9.394 9.387v1.694c0 1.538 0.013 1.712 0.113 1.837 0.094 0.113 0.325 0.181 1.356 0.387 0.688 0.137 1.263 0.262 1.275 0.275 0.019 0.019-0.594 0.656-1.356 1.419l-1.387 1.394v1.694c0 1.538 0.013 1.706 0.113 1.831s0.825 0.281 6.506 1.419c3.519 0.7 6.456 1.262 6.531 1.244 0.069-0.019 4.344-4.244 9.494-9.394l9.356-9.363v-1.706c0-1.688 0-1.706-0.144-1.85-0.113-0.113-0.369-0.181-1.356-0.375-0.669-0.131-1.231-0.25-1.244-0.262-0.019-0.019 0.594-0.656 1.356-1.419l1.387-1.394v-1.675c0-0.981-0.025-1.719-0.063-1.788-0.031-0.063-0.181-0.156-0.325-0.212-0.294-0.106-12.444-2.538-12.681-2.538-0.113 0-2.394 2.244-9.537 9.394zM19.488 1.1c0.131 0.038-0.044 0.231-1.563 1.769-2.569 2.594-3.956 4.125-5.794 6.412-2.431 3.019-4.619 6.225-6.631 9.706-0.225 0.394-0.281 0.456-0.394 0.425-0.075-0.019-0.869-0.175-1.763-0.35s-1.669-0.331-1.719-0.35c-0.106-0.038 17.481-17.65 17.625-17.65 0.050 0 0.156 0.019 0.238 0.038zM21.475 1.5c0.337 0.069 0.625 0.137 0.637 0.156 0.012 0.012-0.544 0.625-1.238 1.356-1.469 1.538-2.137 2.281-2.813 3.112-3.213 3.975-5.494 8.512-6.713 13.375-0.144 0.569-0.275 1.044-0.287 1.056-0.025 0.025-4.681-0.869-4.737-0.906-0.037-0.025 0.162-0.381 0.831-1.494 2.425-4.050 5.225-7.838 8.494-11.469 0.631-0.706 5.144-5.313 5.2-5.313 0.006 0 0.288 0.056 0.625 0.125zM24.456 2.094c0.506 0.1 0.919 0.2 0.919 0.225s-0.75 0.75-1.663 1.619c-2.075 1.975-2.712 2.694-3.694 4.156-1.481 2.219-2.506 4.931-2.863 7.563-0.056 0.413-0.113 0.837-0.131 0.938-0.019 0.15-0.462 0.625-2.106 2.269l-2.088 2.087-0.381-0.075c-0.213-0.044-0.387-0.094-0.387-0.119 0-0.194 0.656-2.488 1-3.512 1.356-4.044 3.594-7.988 6.356-11.181 1.131-1.306 3.913-4.2 4.019-4.169 0.050 0.012 0.506 0.106 1.019 0.2zM28.531 2.906c0.962 0.194 1.794 0.362 1.844 0.381 0.056 0.019-2.044 2.163-6.031 6.15-3.369 3.369-6.131 6.1-6.144 6.069-0.031-0.088 0.231-1.3 0.431-2.006 0.762-2.675 2.294-5.363 4.162-7.281 0.806-0.825 3.825-3.656 3.906-3.656 0.044 0 0.869 0.156 1.831 0.344zM22.269 14.512l-8.738 8.738-0.037-1.525 17.475-17.475 0.038 1.525-8.738 8.738zM29.438 10.094c0.462 0.088 0.887 0.175 0.938 0.194 0.056 0.019-1.331 1.45-4 4.119-2.25 2.25-4.094 4.081-4.106 4.075-0.006-0.012 0.056-0.281 0.137-0.613 0.331-1.3 0.906-2.506 1.738-3.65 0.175-0.244 1.194-1.319 2.256-2.394 1.519-1.525 1.969-1.95 2.069-1.925 0.069 0.012 0.506 0.1 0.969 0.194zM22.269 21.512l-8.738 8.738-0.037-1.525 17.475-17.475 0.038 1.525-8.738 8.738zM21.625 17.025c-0.212 0.637-0.475 1.769-0.538 2.325l-0.038 0.381-8.213 8.213-0.594-0.106c-0.325-0.063-0.594-0.113-0.606-0.119-0.075-0.044 0.55-1.481 0.963-2.219 0.244-0.431 0.306-0.5 0.45-0.5 0.137 0 0.912-0.75 4.444-4.281 2.356-2.35 4.294-4.269 4.3-4.256 0.012 0.006-0.063 0.262-0.169 0.563zM6.925 20.788l5.575 1.119v0.988c0 0.925-0.006 0.988-0.113 0.969-0.063-0.012-2.65-0.525-5.75-1.144l-5.638-1.125v-1.981l0.175 0.031c0.094 0.019 2.681 0.531 5.75 1.144zM6.106 23.644c0.013 0.012-0.056 0.188-0.144 0.394-0.094 0.2-0.313 0.819-0.5 1.369-0.181 0.55-0.356 0.994-0.381 0.988s-0.794-0.15-1.706-0.331c-0.913-0.175-1.7-0.331-1.744-0.35-0.063-0.019 0.319-0.444 1.144-1.269l1.237-1.238 1.031 0.212c0.575 0.113 1.050 0.219 1.063 0.225zM9.563 24.319c1.219 0.244 2.231 0.45 2.244 0.462s-0.15 0.356-0.356 0.762c-0.206 0.406-0.463 0.988-0.581 1.3-0.113 0.306-0.225 0.581-0.244 0.613-0.031 0.038-4.425-0.8-4.481-0.856-0.025-0.019 0.375-1.256 0.563-1.725 0.319-0.825 0.412-1 0.525-1 0.063 0 1.112 0.2 2.331 0.444zM6.925 27.788l5.575 1.119v0.994c0 0.913-0.006 0.988-0.106 0.962-0.063-0.019-2.65-0.531-5.75-1.15l-5.644-1.119v-1.981l0.175 0.031c0.094 0.019 2.681 0.531 5.75 1.144z"></path>
</symbol>
</defs>
</svg>
